<svg width="974" height="386" viewBox="0 0 974 386" fill="none" xmlns="http://www.w3.org/2000/svg">
<path d="M192.607 0C154.513 0 117.275 11.2962 85.6003 32.4601C53.9263 53.624 29.2393 83.7051 14.6614 118.899C0.0834559 154.093 -3.7308 192.821 3.70097 230.183C11.1328 267.545 29.4768 301.864 56.4133 328.8C83.3499 355.737 117.669 374.081 155.031 381.513C192.393 388.945 231.12 385.13 266.315 370.552C301.509 355.975 331.59 331.287 352.753 299.613C373.917 267.939 385.213 230.701 385.213 192.607C385.213 141.525 364.922 92.5337 328.801 56.4132C292.68 20.2924 243.689 0 192.607 0ZM192.607 344.458C162.574 344.458 133.215 335.552 108.242 318.867C83.2711 302.181 63.8079 278.465 52.3147 250.718C40.8214 222.971 37.8143 192.439 43.6735 162.982C49.5327 133.526 63.9951 106.469 85.2319 85.2319C106.468 63.995 133.526 49.5326 162.982 43.6734C192.438 37.8142 222.97 40.8213 250.718 52.3146C278.465 63.8078 302.181 83.271 318.866 108.243C335.552 133.215 344.458 162.573 344.458 192.607C344.418 232.868 328.406 271.468 299.937 299.936C271.468 328.406 232.868 344.417 192.607 344.458Z" fill="url(#paint0_linear_367_235)"/>
<path d="M192.62 59.1538C166.229 59.1538 140.429 66.9798 118.486 81.6421C96.5421 96.3041 79.4387 117.145 69.3391 141.527C59.2395 165.91 56.5969 192.74 61.7457 218.624C66.8944 244.509 79.6032 268.285 98.2652 286.947C116.927 305.609 140.703 318.317 166.587 323.466C192.472 328.615 219.302 325.973 243.684 315.873C268.067 305.772 288.907 288.67 303.57 266.726C318.232 244.782 326.058 218.984 326.058 192.592C326.017 157.214 311.946 123.298 286.929 98.2821C261.914 73.2663 227.997 59.1946 192.62 59.1538ZM192.62 296.523C166.057 296.523 140.582 285.971 121.799 267.188C103.016 248.405 92.4642 222.93 92.4642 196.367H292.775C292.775 209.52 290.185 222.544 285.151 234.695C280.119 246.846 272.741 257.887 263.441 267.188C254.14 276.488 243.099 283.866 230.948 288.898C218.797 293.932 205.773 296.523 192.62 296.523Z" fill="url(#paint1_linear_367_235)"/>
<path d="M794.014 190.649V57.5679H815.542V190.649H794.014ZM771.508 116.28V96.7093H838.048V116.28H771.508Z" fill="black"/>
<path d="M722.45 192.607C717.231 192.607 712.208 191.955 707.38 190.65C702.553 189.215 698.117 187.258 694.072 184.779C690.027 182.169 686.505 179.038 683.504 175.385L697.203 161.685C700.465 165.469 704.184 168.339 708.359 170.296C712.664 172.123 717.492 173.036 722.841 173.036C727.668 173.036 731.322 172.319 733.801 170.883C736.28 169.448 737.519 167.361 737.519 164.621C737.519 161.75 736.345 159.532 733.996 157.967C731.648 156.401 728.582 155.096 724.798 154.053C721.145 152.878 717.231 151.704 713.056 150.53C709.011 149.356 705.097 147.79 701.313 145.833C697.66 143.745 694.659 140.94 692.311 137.418C689.962 133.895 688.788 129.328 688.788 123.718C688.788 117.716 690.158 112.563 692.898 108.257C695.768 103.952 699.748 100.625 704.836 98.2761C710.055 95.9277 716.252 94.7534 723.428 94.7534C730.995 94.7534 737.649 96.1234 743.39 98.8633C749.261 101.473 754.154 105.452 758.068 110.801L744.369 124.501C741.629 121.109 738.498 118.564 734.975 116.868C731.452 115.172 727.407 114.324 722.841 114.324C718.535 114.324 715.208 114.976 712.86 116.281C710.511 117.586 709.337 119.478 709.337 121.957C709.337 124.566 710.511 126.588 712.86 128.024C715.208 129.459 718.209 130.698 721.862 131.742C725.646 132.786 729.56 133.96 733.605 135.265C737.78 136.439 741.694 138.135 745.347 140.353C749.131 142.441 752.197 145.311 754.546 148.964C756.894 152.487 758.068 157.119 758.068 162.859C758.068 171.992 754.872 179.234 748.479 184.583C742.086 189.932 733.409 192.607 722.45 192.607Z" fill="black"/>
<path d="M626.907 192.607C617.513 192.607 609.032 190.519 601.465 186.344C594.028 182.039 588.092 176.167 583.656 168.731C579.35 161.294 577.197 152.944 577.197 143.68C577.197 134.417 579.35 126.132 583.656 118.825C587.961 111.389 593.767 105.517 601.074 101.212C608.51 96.9062 616.73 94.7534 625.733 94.7534C634.474 94.7534 642.172 96.7757 648.826 100.82C655.611 104.865 660.895 110.41 664.678 117.455C668.592 124.501 670.549 132.525 670.549 141.527C670.549 143.093 670.419 144.724 670.158 146.42C670.028 147.986 669.767 149.747 669.375 151.704H592.267V134.091H658.22L650.196 141.136C649.935 135.395 648.826 130.568 646.869 126.654C644.912 122.74 642.107 119.739 638.454 117.651C634.931 115.564 630.56 114.52 625.341 114.52C619.861 114.52 615.099 115.694 611.055 118.043C607.01 120.391 603.879 123.718 601.661 128.024C599.443 132.199 598.334 137.222 598.334 143.093C598.334 148.964 599.508 154.118 601.856 158.554C604.205 162.99 607.532 166.447 611.837 168.926C616.143 171.275 621.101 172.449 626.711 172.449C631.539 172.449 635.975 171.601 640.019 169.905C644.194 168.209 647.717 165.73 650.587 162.468L664.287 176.363C659.72 181.713 654.175 185.757 647.652 188.497C641.128 191.237 634.213 192.607 626.907 192.607Z" fill="black"/>
<path d="M519.834 190.65V57.5689H542.34V190.65H519.834ZM475.213 74.204V53.6548H586.962V74.204H475.213Z" fill="black"/>
<path d="M959.408 306.201C957.177 306.201 955.064 305.908 953.068 305.321C951.131 304.675 949.341 303.795 947.697 302.679C946.112 301.564 944.703 300.273 943.471 298.805L946.464 295.811C948.108 297.983 950.016 299.598 952.188 300.654C954.418 301.652 956.854 302.151 959.496 302.151C962.548 302.151 964.955 301.535 966.716 300.302C968.477 299.069 969.357 297.338 969.357 295.107C969.357 293.111 968.799 291.556 967.684 290.44C966.569 289.267 965.101 288.357 963.282 287.711C961.521 287.065 959.642 286.449 957.647 285.862C955.709 285.275 953.831 284.571 952.011 283.749C950.25 282.927 948.812 281.782 947.697 280.315C946.582 278.847 946.024 276.881 946.024 274.416C946.024 272.244 946.582 270.336 947.697 268.692C948.812 267.049 950.368 265.787 952.364 264.906C954.418 263.967 956.825 263.498 959.584 263.498C962.636 263.498 965.366 264.026 967.772 265.082C970.238 266.139 972.204 267.695 973.671 269.749L970.766 272.743C969.592 271.099 968.007 269.837 966.011 268.957C964.015 268.017 961.785 267.548 959.319 267.548C956.385 267.548 954.154 268.164 952.628 269.397C951.102 270.63 950.339 272.214 950.339 274.151C950.339 275.971 950.896 277.409 952.011 278.466C953.127 279.522 954.565 280.344 956.326 280.931C958.145 281.518 960.024 282.105 961.961 282.692C963.957 283.22 965.835 283.925 967.596 284.805C969.416 285.686 970.883 286.889 971.998 288.415C973.114 289.942 973.671 292.025 973.671 294.667C973.671 298.189 972.38 301.006 969.797 303.12C967.215 305.174 963.751 306.201 959.408 306.201Z" fill="black"/>
<path d="M912.298 306.201C908.248 306.201 904.579 305.262 901.292 303.384C898.064 301.505 895.51 298.952 893.632 295.723C891.754 292.495 890.814 288.856 890.814 284.805C890.814 280.755 891.724 277.145 893.544 273.975C895.364 270.747 897.858 268.193 901.028 266.315C904.257 264.437 907.837 263.498 911.77 263.498C915.527 263.498 918.814 264.349 921.632 266.051C924.508 267.695 926.738 269.984 928.323 272.919C929.967 275.854 930.789 279.229 930.789 283.044C930.789 283.397 930.759 283.866 930.701 284.453C930.642 284.981 930.554 285.657 930.436 286.478H893.984V282.604H927.883L926.386 283.837C926.504 280.608 925.975 277.791 924.801 275.384C923.627 272.919 921.925 271.011 919.694 269.661C917.464 268.311 914.793 267.636 911.682 267.636C908.454 267.636 905.607 268.37 903.141 269.837C900.676 271.246 898.739 273.212 897.33 275.736C895.98 278.26 895.305 281.195 895.305 284.541C895.305 288.063 896.009 291.145 897.418 293.786C898.886 296.369 900.911 298.394 903.493 299.862C906.076 301.27 909.099 301.975 912.562 301.975C915.204 301.975 917.64 301.505 919.871 300.566C922.16 299.568 924.068 298.101 925.594 296.164L928.587 299.069C926.709 301.3 924.332 303.061 921.455 304.352C918.638 305.585 915.586 306.201 912.298 306.201Z" fill="black"/>
<path d="M813.086 305.321V264.378H817.576V305.321H813.086ZM841.79 305.321V279.875C841.79 276.177 840.675 273.212 838.444 270.982C836.272 268.751 833.484 267.636 830.079 267.636C827.79 267.636 825.706 268.135 823.828 269.133C821.95 270.131 820.423 271.539 819.249 273.359C818.134 275.179 817.576 277.292 817.576 279.699L815.287 279.17C815.287 276 815.962 273.242 817.312 270.894C818.721 268.546 820.599 266.726 822.947 265.435C825.354 264.143 828.025 263.498 830.96 263.498C833.895 263.498 836.507 264.143 838.796 265.435C841.085 266.726 842.905 268.546 844.255 270.894C845.605 273.242 846.28 276 846.28 279.17V305.321H841.79ZM870.494 305.321V279.875C870.494 276.177 869.378 273.212 867.148 270.982C864.976 268.751 862.188 267.636 858.783 267.636C856.494 267.636 854.381 268.135 852.444 269.133C850.565 270.131 849.069 271.539 847.953 273.359C846.838 275.179 846.28 277.292 846.28 279.699L843.551 279.17C843.61 275.942 844.343 273.183 845.752 270.894C847.22 268.546 849.157 266.726 851.563 265.435C853.97 264.143 856.641 263.498 859.576 263.498C862.511 263.498 865.123 264.143 867.412 265.435C869.701 266.726 871.521 268.575 872.871 270.982C874.28 273.33 874.984 276.089 874.984 279.258V305.321H870.494Z" fill="black"/>
<path d="M773.385 306.201C769.452 306.201 765.901 305.262 762.731 303.384C759.62 301.505 757.155 298.981 755.335 295.811C753.515 292.583 752.605 288.944 752.605 284.893C752.605 280.902 753.515 277.292 755.335 274.063C757.155 270.835 759.62 268.282 762.731 266.403C765.842 264.466 769.335 263.498 773.209 263.498C776.379 263.498 779.196 264.114 781.662 265.347C784.186 266.521 786.24 268.193 787.825 270.365C789.469 272.537 790.525 275.12 790.995 278.114V291.497C790.466 294.491 789.381 297.103 787.737 299.333C786.152 301.505 784.127 303.208 781.662 304.44C779.255 305.614 776.496 306.201 773.385 306.201ZM774.001 301.975C778.697 301.975 782.425 300.419 785.184 297.308C788.001 294.139 789.41 290 789.41 284.893C789.41 281.43 788.764 278.437 787.473 275.912C786.24 273.33 784.45 271.334 782.102 269.925C779.754 268.458 777.024 267.724 773.913 267.724C770.685 267.724 767.809 268.458 765.284 269.925C762.819 271.393 760.853 273.418 759.385 276C757.976 278.583 757.272 281.518 757.272 284.805C757.272 288.151 757.976 291.116 759.385 293.698C760.853 296.281 762.848 298.306 765.373 299.774C767.897 301.241 770.773 301.975 774.001 301.975ZM789.234 305.321V294.315L790.202 284.277L789.234 274.328V264.378H793.724V305.321H789.234Z" fill="black"/>
<path d="M709.775 306.113C705.431 306.113 701.41 305.35 697.712 303.824C694.014 302.239 690.815 300.067 688.115 297.308C685.415 294.549 683.302 291.291 681.775 287.535C680.308 283.778 679.574 279.698 679.574 275.296C679.574 270.893 680.337 266.814 681.863 263.057C683.39 259.3 685.503 256.013 688.203 253.196C690.962 250.378 694.19 248.206 697.888 246.68C701.586 245.095 705.607 244.303 709.951 244.303C714.823 244.303 719.284 245.271 723.334 247.208C727.385 249.145 730.672 251.934 733.196 255.573L729.938 258.831C727.708 255.602 724.861 253.137 721.397 251.435C717.993 249.674 714.177 248.793 709.951 248.793C705.02 248.793 700.618 249.938 696.744 252.227C692.87 254.516 689.847 257.657 687.675 261.648C685.503 265.64 684.417 270.189 684.417 275.296C684.417 280.403 685.503 284.952 687.675 288.943C689.847 292.935 692.811 296.046 696.568 298.277C700.324 300.507 704.668 301.622 709.599 301.622C714.295 301.622 718.374 300.654 721.838 298.717C725.301 296.78 728.001 293.962 729.938 290.264C731.875 286.507 732.844 282.046 732.844 276.881L735.221 278.642H708.718V274.415H737.686V275.208C737.686 281.782 736.512 287.388 734.164 292.025C731.875 296.604 728.617 300.096 724.391 302.503C720.223 304.91 715.351 306.113 709.775 306.113Z" fill="black"/>
<path d="M644.193 305.409L625.967 264.378H630.898L646.658 300.742H644.369L660.834 264.378H665.765L646.482 305.409H644.193ZM633.539 322.666L644.105 301.006L646.482 305.409L638.382 322.666H633.539Z" fill="black"/>
<path d="M606.316 305.32V243.51H610.807V305.32H606.316Z" fill="black"/>
<path d="M583.335 305.321V281.019C583.335 277.028 582.161 273.799 579.813 271.334C577.465 268.869 574.354 267.636 570.48 267.636C567.838 267.636 565.49 268.223 563.436 269.397C561.44 270.512 559.855 272.068 558.681 274.063C557.566 276.059 557.008 278.378 557.008 281.019L554.719 279.699C554.719 276.587 555.453 273.829 556.92 271.422C558.387 268.957 560.383 267.02 562.907 265.611C565.431 264.202 568.308 263.498 571.536 263.498C574.765 263.498 577.582 264.261 579.989 265.787C582.454 267.254 584.362 269.279 585.712 271.862C587.062 274.445 587.737 277.321 587.737 280.491V305.321H583.335ZM552.518 305.321V264.378H557.008V305.321H552.518Z" fill="black"/>
<path d="M504.973 306.201C500.747 306.201 496.814 305.408 493.175 303.824C489.594 302.239 486.454 300.037 483.754 297.22C481.053 294.344 478.94 291.027 477.414 287.27C475.947 283.514 475.213 279.493 475.213 275.208C475.213 270.864 475.947 266.843 477.414 263.145C478.882 259.388 480.965 256.101 483.666 253.284C486.366 250.466 489.506 248.294 493.087 246.768C496.667 245.183 500.571 244.391 504.797 244.391C509.024 244.391 512.927 245.183 516.508 246.768C520.147 248.294 523.288 250.466 525.929 253.284C528.629 256.101 530.742 259.388 532.269 263.145C533.795 266.902 534.558 270.952 534.558 275.296C534.558 279.581 533.795 283.602 532.269 287.358C530.801 291.115 528.717 294.402 526.017 297.22C523.317 300.037 520.176 302.239 516.596 303.824C513.074 305.408 509.2 306.201 504.973 306.201ZM504.797 301.71C509.611 301.71 513.866 300.566 517.564 298.276C521.321 295.929 524.285 292.759 526.457 288.767C528.629 284.776 529.715 280.256 529.715 275.208C529.715 271.451 529.069 267.988 527.778 264.818C526.545 261.589 524.814 258.801 522.583 256.453C520.353 254.047 517.711 252.198 514.659 250.906C511.665 249.556 508.378 248.881 504.797 248.881C500.043 248.881 495.787 250.026 492.03 252.315C488.332 254.604 485.397 257.745 483.225 261.736C481.112 265.669 480.056 270.16 480.056 275.208C480.056 278.964 480.672 282.457 481.905 285.686C483.137 288.914 484.869 291.732 487.099 294.138C489.33 296.545 491.942 298.423 494.936 299.773C497.988 301.065 501.275 301.71 504.797 301.71Z" fill="black"/>
<defs>
<linearGradient id="paint0_linear_367_235" x1="299.611" y1="449.416" x2="304.961" y2="-176.557" gradientUnits="userSpaceOnUse">
<stop stop-color="#4A3D00"/>
<stop offset="0.48" stop-color="#FFD300"/>
<stop offset="0.740385" stop-color="#FEF0AD"/>
</linearGradient>
<linearGradient id="paint1_linear_367_235" x1="266.752" y1="370.509" x2="270.458" y2="-63.1645" gradientUnits="userSpaceOnUse">
<stop stop-color="#615000"/>
<stop offset="0.480769" stop-color="#FFD300"/>
<stop offset="0.846154" stop-color="#FEF0AD"/>
</linearGradient>
</defs>
</svg>
