<svg width="974" height="386" viewBox="0 0 974 386" fill="none" xmlns="http://www.w3.org/2000/svg">
<path d="M192.607 0C154.513 0 117.275 11.2962 85.6003 32.4601C53.9263 53.624 29.2393 83.7051 14.6614 118.899C0.0834559 154.093 -3.7308 192.821 3.70097 230.183C11.1328 267.545 29.4768 301.864 56.4133 328.8C83.3499 355.737 117.669 374.081 155.031 381.513C192.393 388.945 231.12 385.13 266.315 370.552C301.509 355.975 331.59 331.287 352.753 299.613C373.917 267.939 385.213 230.701 385.213 192.607C385.213 141.525 364.922 92.5337 328.801 56.4132C292.68 20.2924 243.689 0 192.607 0ZM192.607 344.458C162.574 344.458 133.215 335.552 108.242 318.867C83.2711 302.181 63.8079 278.465 52.3147 250.718C40.8214 222.971 37.8143 192.439 43.6735 162.982C49.5327 133.526 63.9951 106.469 85.2319 85.2319C106.468 63.995 133.526 49.5326 162.982 43.6734C192.438 37.8142 222.97 40.8213 250.718 52.3146C278.465 63.8078 302.181 83.271 318.866 108.243C335.552 133.215 344.458 162.573 344.458 192.607C344.418 232.868 328.406 271.468 299.937 299.936C271.468 328.406 232.868 344.417 192.607 344.458Z" fill="url(#paint0_linear_361_226)"/>
<path d="M192.62 59.1538C166.229 59.1538 140.429 66.9798 118.486 81.6421C96.5421 96.3041 79.4387 117.145 69.3391 141.527C59.2395 165.91 56.5969 192.74 61.7457 218.624C66.8944 244.509 79.6032 268.285 98.2652 286.947C116.927 305.609 140.703 318.317 166.587 323.466C192.472 328.615 219.302 325.973 243.684 315.873C268.067 305.772 288.907 288.67 303.57 266.726C318.232 244.782 326.058 218.984 326.058 192.592C326.017 157.214 311.946 123.298 286.929 98.2821C261.914 73.2663 227.997 59.1946 192.62 59.1538ZM192.62 296.523C166.057 296.523 140.582 285.971 121.799 267.188C103.016 248.405 92.4642 222.93 92.4642 196.367H292.775C292.775 209.52 290.185 222.544 285.151 234.695C280.119 246.846 272.741 257.887 263.441 267.188C254.14 276.488 243.099 283.866 230.948 288.898C218.797 293.932 205.773 296.523 192.62 296.523Z" fill="url(#paint1_linear_361_226)"/>
<path d="M794.127 190.649V57.5679H815.655V190.649H794.127ZM771.621 116.28V96.7093H838.161V116.28H771.621Z" fill="white"/>
<path d="M722.563 192.607C717.344 192.607 712.321 191.955 707.493 190.65C702.666 189.215 698.23 187.258 694.185 184.779C690.141 182.169 686.618 179.038 683.617 175.385L697.317 161.685C700.578 165.469 704.297 168.339 708.472 170.296C712.778 172.123 717.605 173.036 722.954 173.036C727.782 173.036 731.435 172.319 733.914 170.883C736.393 169.448 737.632 167.361 737.632 164.621C737.632 161.75 736.458 159.532 734.11 157.967C731.761 156.401 728.695 155.096 724.911 154.053C721.258 152.878 717.344 151.704 713.169 150.53C709.124 149.356 705.21 147.79 701.427 145.833C697.773 143.745 694.772 140.94 692.424 137.418C690.076 133.895 688.901 129.328 688.901 123.718C688.901 117.716 690.271 112.563 693.011 108.257C695.881 103.952 699.861 100.625 704.949 98.2761C710.168 95.9277 716.365 94.7534 723.541 94.7534C731.109 94.7534 737.763 96.1234 743.504 98.8633C749.375 101.473 754.267 105.452 758.182 110.801L744.482 124.501C741.742 121.109 738.611 118.564 735.088 116.868C731.565 115.172 727.521 114.324 722.954 114.324C718.649 114.324 715.322 114.976 712.973 116.281C710.625 117.586 709.45 119.478 709.45 121.957C709.45 124.566 710.625 126.588 712.973 128.024C715.322 129.459 718.323 130.698 721.976 131.742C725.759 132.786 729.674 133.96 733.718 135.265C737.893 136.439 741.807 138.135 745.461 140.353C749.244 142.441 752.31 145.311 754.659 148.964C757.007 152.487 758.182 157.119 758.182 162.859C758.182 171.992 754.985 179.234 748.592 184.583C742.199 189.932 733.522 192.607 722.563 192.607Z" fill="white"/>
<path d="M627.02 192.607C617.626 192.607 609.146 190.519 601.578 186.344C594.141 182.039 588.205 176.167 583.769 168.731C579.463 161.294 577.311 152.944 577.311 143.68C577.311 134.417 579.463 126.132 583.769 118.825C588.074 111.389 593.88 105.517 601.187 101.212C608.624 96.9062 616.843 94.7534 625.846 94.7534C634.587 94.7534 642.285 96.7757 648.939 100.82C655.724 104.865 661.008 110.41 664.792 117.455C668.706 124.501 670.663 132.525 670.663 141.527C670.663 143.093 670.532 144.724 670.271 146.42C670.141 147.986 669.88 149.747 669.489 151.704H592.38V134.091H658.333L650.309 141.136C650.048 135.395 648.939 130.568 646.982 126.654C645.025 122.74 642.22 119.739 638.567 117.651C635.044 115.564 630.673 114.52 625.454 114.52C619.975 114.52 615.212 115.694 611.168 118.043C607.123 120.391 603.992 123.718 601.774 128.024C599.556 132.199 598.447 137.222 598.447 143.093C598.447 148.964 599.621 154.118 601.97 158.554C604.318 162.99 607.645 166.447 611.951 168.926C616.256 171.275 621.214 172.449 626.824 172.449C631.652 172.449 636.088 171.601 640.132 169.905C644.308 168.209 647.83 165.73 650.701 162.468L664.4 176.363C659.834 181.713 654.289 185.757 647.765 188.497C641.241 191.237 634.327 192.607 627.02 192.607Z" fill="white"/>
<path d="M519.947 190.65V57.5689H542.454V190.65H519.947ZM475.326 74.204V53.6548H587.075V74.204H475.326Z" fill="white"/>
<path d="M959.521 306.201C957.29 306.201 955.177 305.908 953.181 305.321C951.244 304.675 949.454 303.795 947.81 302.679C946.225 301.564 944.817 300.273 943.584 298.805L946.578 295.811C948.221 297.983 950.129 299.598 952.301 300.654C954.531 301.652 956.967 302.151 959.609 302.151C962.661 302.151 965.068 301.535 966.829 300.302C968.59 299.069 969.47 297.338 969.47 295.107C969.47 293.111 968.913 291.556 967.797 290.44C966.682 289.267 965.215 288.357 963.395 287.711C961.634 287.065 959.756 286.449 957.76 285.862C955.823 285.275 953.944 284.571 952.125 283.749C950.364 282.927 948.926 281.782 947.81 280.315C946.695 278.847 946.137 276.881 946.137 274.416C946.137 272.244 946.695 270.336 947.81 268.692C948.926 267.049 950.481 265.787 952.477 264.906C954.531 263.967 956.938 263.498 959.697 263.498C962.749 263.498 965.479 264.026 967.885 265.082C970.351 266.139 972.317 267.695 973.785 269.749L970.879 272.743C969.705 271.099 968.12 269.837 966.124 268.957C964.129 268.017 961.898 267.548 959.433 267.548C956.498 267.548 954.267 268.164 952.741 269.397C951.215 270.63 950.452 272.214 950.452 274.151C950.452 275.971 951.009 277.409 952.125 278.466C953.24 279.522 954.678 280.344 956.439 280.931C958.259 281.518 960.137 282.105 962.074 282.692C964.07 283.22 965.948 283.925 967.709 284.805C969.529 285.686 970.996 286.889 972.112 288.415C973.227 289.942 973.785 292.025 973.785 294.667C973.785 298.189 972.493 301.006 969.911 303.12C967.328 305.174 963.865 306.201 959.521 306.201Z" fill="white"/>
<path d="M912.412 306.201C908.361 306.201 904.693 305.262 901.406 303.384C898.177 301.505 895.624 298.952 893.745 295.723C891.867 292.495 890.928 288.856 890.928 284.805C890.928 280.755 891.838 277.145 893.657 273.975C895.477 270.747 897.972 268.193 901.141 266.315C904.37 264.437 907.95 263.498 911.883 263.498C915.64 263.498 918.927 264.349 921.745 266.051C924.621 267.695 926.852 269.984 928.437 272.919C930.08 275.854 930.902 279.229 930.902 283.044C930.902 283.397 930.873 283.866 930.814 284.453C930.755 284.981 930.667 285.657 930.55 286.478H894.097V282.604H927.996L926.499 283.837C926.617 280.608 926.089 277.791 924.915 275.384C923.741 272.919 922.038 271.011 919.808 269.661C917.577 268.311 914.906 267.636 911.795 267.636C908.567 267.636 905.72 268.37 903.255 269.837C900.789 271.246 898.852 273.212 897.443 275.736C896.093 278.26 895.418 281.195 895.418 284.541C895.418 288.063 896.123 291.145 897.531 293.786C898.999 296.369 901.024 298.394 903.607 299.862C906.19 301.27 909.213 301.975 912.676 301.975C915.317 301.975 917.753 301.505 919.984 300.566C922.273 299.568 924.181 298.101 925.707 296.164L928.701 299.069C926.822 301.3 924.445 303.061 921.569 304.352C918.751 305.585 915.699 306.201 912.412 306.201Z" fill="white"/>
<path d="M813.199 305.321V264.378H817.69V305.321H813.199ZM841.903 305.321V279.875C841.903 276.177 840.788 273.212 838.557 270.982C836.385 268.751 833.597 267.636 830.193 267.636C827.903 267.636 825.82 268.135 823.941 269.133C822.063 270.131 820.537 271.539 819.363 273.359C818.247 275.179 817.69 277.292 817.69 279.699L815.4 279.17C815.4 276 816.075 273.242 817.426 270.894C818.834 268.546 820.713 266.726 823.061 265.435C825.467 264.143 828.138 263.498 831.073 263.498C834.008 263.498 836.62 264.143 838.909 265.435C841.199 266.726 843.018 268.546 844.368 270.894C845.719 273.242 846.394 276 846.394 279.17V305.321H841.903ZM870.607 305.321V279.875C870.607 276.177 869.492 273.212 867.261 270.982C865.089 268.751 862.301 267.636 858.897 267.636C856.607 267.636 854.494 268.135 852.557 269.133C850.679 270.131 849.182 271.539 848.067 273.359C846.951 275.179 846.394 277.292 846.394 279.699L843.664 279.17C843.723 275.942 844.457 273.183 845.865 270.894C847.333 268.546 849.27 266.726 851.677 265.435C854.083 264.143 856.754 263.498 859.689 263.498C862.624 263.498 865.236 264.143 867.525 265.435C869.815 266.726 871.634 268.575 872.984 270.982C874.393 273.33 875.097 276.089 875.097 279.258V305.321H870.607Z" fill="white"/>
<path d="M773.498 306.201C769.565 306.201 766.014 305.262 762.844 303.384C759.733 301.505 757.268 298.981 755.448 295.811C753.629 292.583 752.719 288.944 752.719 284.893C752.719 280.902 753.629 277.292 755.448 274.063C757.268 270.835 759.733 268.282 762.844 266.403C765.955 264.466 769.448 263.498 773.322 263.498C776.492 263.498 779.309 264.114 781.775 265.347C784.299 266.521 786.353 268.193 787.938 270.365C789.582 272.537 790.638 275.12 791.108 278.114V291.497C790.58 294.491 789.494 297.103 787.85 299.333C786.265 301.505 784.24 303.208 781.775 304.44C779.368 305.614 776.609 306.201 773.498 306.201ZM774.115 301.975C778.811 301.975 782.538 300.419 785.297 297.308C788.114 294.139 789.523 290 789.523 284.893C789.523 281.43 788.877 278.437 787.586 275.912C786.353 273.33 784.563 271.334 782.215 269.925C779.867 268.458 777.138 267.724 774.027 267.724C770.798 267.724 767.922 268.458 765.398 269.925C762.932 271.393 760.966 273.418 759.498 276C758.09 278.583 757.385 281.518 757.385 284.805C757.385 288.151 758.09 291.116 759.498 293.698C760.966 296.281 762.962 298.306 765.486 299.774C768.01 301.241 770.886 301.975 774.115 301.975ZM789.347 305.321V294.315L790.316 284.277L789.347 274.328V264.378H793.838V305.321H789.347Z" fill="white"/>
<path d="M709.888 306.113C705.545 306.113 701.524 305.35 697.826 303.824C694.128 302.239 690.928 300.067 688.228 297.308C685.528 294.549 683.415 291.291 681.889 287.535C680.421 283.778 679.688 279.698 679.688 275.296C679.688 270.893 680.451 266.814 681.977 263.057C683.503 259.3 685.616 256.013 688.316 253.196C691.075 250.378 694.304 248.206 698.002 246.68C701.7 245.095 705.721 244.303 710.064 244.303C714.936 244.303 719.397 245.271 723.448 247.208C727.498 249.145 730.785 251.934 733.309 255.573L730.051 258.831C727.821 255.602 724.974 253.137 721.511 251.435C718.106 249.674 714.291 248.793 710.064 248.793C705.134 248.793 700.731 249.938 696.857 252.227C692.983 254.516 689.96 257.657 687.788 261.648C685.616 265.64 684.53 270.189 684.53 275.296C684.53 280.403 685.616 284.952 687.788 288.943C689.96 292.935 692.924 296.046 696.681 298.277C700.438 300.507 704.781 301.622 709.712 301.622C714.408 301.622 718.488 300.654 721.951 298.717C725.414 296.78 728.114 293.962 730.051 290.264C731.988 286.507 732.957 282.046 732.957 276.881L735.334 278.642H708.832V274.415H737.8V275.208C737.8 281.782 736.626 287.388 734.278 292.025C731.988 296.604 728.731 300.096 724.504 302.503C720.337 304.91 715.465 306.113 709.888 306.113Z" fill="white"/>
<path d="M644.306 305.409L626.08 264.378H631.011L646.772 300.742H644.482L660.947 264.378H665.878L646.595 305.409H644.306ZM633.652 322.666L644.218 301.006L646.595 305.409L638.495 322.666H633.652Z" fill="white"/>
<path d="M606.43 305.32V243.51H610.92V305.32H606.43Z" fill="white"/>
<path d="M583.448 305.321V281.019C583.448 277.028 582.274 273.799 579.926 271.334C577.578 268.869 574.467 267.636 570.593 267.636C567.951 267.636 565.603 268.223 563.549 269.397C561.553 270.512 559.968 272.068 558.794 274.063C557.679 276.059 557.121 278.378 557.121 281.019L554.832 279.699C554.832 276.587 555.566 273.829 557.033 271.422C558.501 268.957 560.497 267.02 563.021 265.611C565.545 264.202 568.421 263.498 571.649 263.498C574.878 263.498 577.695 264.261 580.102 265.787C582.567 267.254 584.475 269.279 585.825 271.862C587.175 274.445 587.85 277.321 587.85 280.491V305.321H583.448ZM552.631 305.321V264.378H557.121V305.321H552.631Z" fill="white"/>
<path d="M505.087 306.201C500.86 306.201 496.927 305.408 493.288 303.824C489.707 302.239 486.567 300.037 483.867 297.22C481.167 294.344 479.054 291.027 477.527 287.27C476.06 283.514 475.326 279.493 475.326 275.208C475.326 270.864 476.06 266.843 477.527 263.145C478.995 259.388 481.079 256.101 483.779 253.284C486.479 250.466 489.619 248.294 493.2 246.768C496.781 245.183 500.684 244.391 504.911 244.391C509.137 244.391 513.04 245.183 516.621 246.768C520.26 248.294 523.401 250.466 526.042 253.284C528.742 256.101 530.856 259.388 532.382 263.145C533.908 266.902 534.671 270.952 534.671 275.296C534.671 279.581 533.908 283.602 532.382 287.358C530.914 291.115 528.83 294.402 526.13 297.22C523.43 300.037 520.29 302.239 516.709 303.824C513.187 305.408 509.313 306.201 505.087 306.201ZM504.911 301.71C509.724 301.71 513.98 300.566 517.678 298.276C521.434 295.929 524.399 292.759 526.571 288.767C528.742 284.776 529.828 280.256 529.828 275.208C529.828 271.451 529.183 267.988 527.891 264.818C526.659 261.589 524.927 258.801 522.696 256.453C520.466 254.047 517.824 252.198 514.772 250.906C511.778 249.556 508.491 248.881 504.911 248.881C500.156 248.881 495.9 250.026 492.143 252.315C488.445 254.604 485.51 257.745 483.339 261.736C481.225 265.669 480.169 270.16 480.169 275.208C480.169 278.964 480.785 282.457 482.018 285.686C483.251 288.914 484.982 291.732 487.213 294.138C489.443 296.545 492.055 298.423 495.049 299.773C498.101 301.065 501.389 301.71 504.911 301.71Z" fill="white"/>
<defs>
<linearGradient id="paint0_linear_361_226" x1="299.611" y1="449.416" x2="304.961" y2="-176.557" gradientUnits="userSpaceOnUse">
<stop stop-color="#4A3D00"/>
<stop offset="0.48" stop-color="#FFD300"/>
<stop offset="0.740385" stop-color="#FEF0AD"/>
</linearGradient>
<linearGradient id="paint1_linear_361_226" x1="266.752" y1="370.509" x2="270.458" y2="-63.1645" gradientUnits="userSpaceOnUse">
<stop stop-color="#615000"/>
<stop offset="0.480769" stop-color="#FFD300"/>
<stop offset="0.846154" stop-color="#FEF0AD"/>
</linearGradient>
</defs>
</svg>
