<svg width="530" height="136" viewBox="0 0 530 136" fill="none" xmlns="http://www.w3.org/2000/svg">
<path d="M455.572 136.001L474.634 104.695L473.521 111.93L454.598 42.917H472.129L484.93 95.7899H480.617L510.81 42.917H529.037L473.381 136.001H455.572Z" fill="black"/>
<path d="M434.753 112.352C426.868 112.352 421.21 110.172 417.778 105.812C414.346 101.36 413.279 94.9129 414.578 86.4718L426.265 12.8672H443.658L431.97 86.3327C431.599 89.0227 431.645 91.2489 432.109 93.0113C432.573 94.7738 433.501 96.0724 434.892 96.9072C436.376 97.7421 438.278 98.1595 440.597 98.1595C441.617 98.1595 442.637 98.1131 443.658 98.0203C444.678 97.8348 445.698 97.6957 446.719 97.6029L444.353 111.099C442.962 111.47 441.432 111.749 439.762 111.934C438.092 112.213 436.423 112.352 434.753 112.352Z" fill="black"/>
<path d="M370.51 112.344C363.646 112.344 357.663 111.092 352.561 108.588C347.552 105.99 343.656 102.373 340.873 97.7347C338.091 93.0967 336.699 87.6703 336.699 81.4554C336.699 73.8491 338.276 67.0777 341.43 61.1411C344.677 55.1117 349.129 50.3346 354.787 46.8097C360.446 43.2849 366.939 41.5225 374.267 41.5225C381.688 41.5225 387.578 43.1921 391.937 46.5315C396.297 49.778 399.265 54.1377 400.842 59.6105C402.512 64.9906 402.976 70.8808 402.234 77.2812L401.816 80.8988H350.613L352.005 70.8808H390.963L388.598 72.9679C389.155 69.2575 389.016 65.9646 388.181 63.089C387.346 60.1207 385.769 57.7554 383.45 55.9929C381.224 54.2305 378.116 53.3493 374.128 53.3493C370.046 53.3493 366.614 54.2769 363.831 56.1321C361.049 57.9873 358.869 60.399 357.292 63.3673C355.715 66.2428 354.648 69.3503 354.092 72.6896L353.396 77.0029C352.654 81.5482 352.886 85.4904 354.092 88.8298C355.39 92.0763 357.57 94.6272 360.631 96.4824C363.692 98.2449 367.495 99.1261 372.041 99.1261C376.122 99.1261 379.972 98.5695 383.589 97.4564C387.299 96.2505 390.592 94.4881 393.468 92.1691L397.781 103.579C394.535 106.361 390.453 108.541 385.537 110.118C380.714 111.602 375.705 112.344 370.51 112.344Z" fill="black"/>
<path d="M290.966 110.959L299.731 55.9988H286.652L288.739 42.9197H303.627L301.401 44.7285L302.236 39.5803C303.071 34.2003 304.787 29.5623 307.384 25.6664C309.981 21.6778 313.599 18.5703 318.237 16.3441C322.875 14.1179 328.719 12.8656 335.768 12.5873L343.978 12.1699L343.699 24.9707L336.464 25.3881C333.032 25.5737 330.11 26.223 327.698 27.3361C325.379 28.3564 323.571 29.8406 322.272 31.7885C320.973 33.7365 320.092 36.241 319.628 39.3021L318.793 44.3111L317.541 42.9197H337.299L335.212 55.9988H317.124L308.358 110.959H290.966Z" fill="black"/>
<path d="M262.99 28.3099L265.773 11.335H285.113L282.331 28.3099H262.99ZM250.746 110.959L261.599 42.9195H278.991L268.138 110.959H250.746Z" fill="black"/>
<path d="M230.394 112.352C222.509 112.352 216.851 110.172 213.419 105.812C209.986 101.36 208.92 94.9129 210.218 86.4718L221.906 12.8672H239.298L227.611 86.3327C227.24 89.0227 227.286 91.2489 227.75 93.0113C228.214 94.7738 229.141 96.0724 230.533 96.9072C232.017 97.7421 233.918 98.1595 236.237 98.1595C237.258 98.1595 238.278 98.1131 239.298 98.0203C240.319 97.8348 241.339 97.6957 242.359 97.6029L239.994 111.099C238.603 111.47 237.072 111.749 235.403 111.934C233.733 112.213 232.063 112.352 230.394 112.352Z" fill="black"/>
<path d="M66.8328 110.882L72.3009 113.312C87.1375 119.906 104.567 114.797 113.497 101.238L158.288 33.2208C161.776 27.9245 159.855 20.7707 154.183 17.9346L118.314 6.68408e-05L66.8328 110.882Z" fill="#D052D3"/>
<path d="M126.731 95.0413C126.731 84.6527 135.153 76.231 145.541 76.231C155.93 76.231 164.352 84.6527 164.352 95.0413C164.352 105.43 155.93 113.852 145.541 113.852C135.153 113.852 126.731 105.43 126.731 95.0413Z" fill="#D052D3"/>
<path d="M97.5234 8.28741L92.0556 5.85723C77.2187 -0.736993 59.7894 4.37163 50.8598 17.9314L6.06812 85.9482C2.58025 91.2445 4.50176 98.3983 10.1739 101.234L46.0428 119.169L97.5234 8.28741Z" fill="#A90E98"/>
<path d="M0.000580656 24.1282C0.00058111 13.7396 8.42222 5.31796 18.8108 5.31796C29.1995 5.31796 37.6211 13.7396 37.6211 24.1282C37.6211 34.5168 29.1995 42.9385 18.8108 42.9385C8.42222 42.9385 0.000580202 34.5168 0.000580656 24.1282Z" fill="#A90E98"/>
</svg>
