<svg width="312" height="69" viewBox="0 0 312 69" fill="none" xmlns="http://www.w3.org/2000/svg">
<path d="M292.119 57.2513H282.48L284.588 42.1897L283.785 39.3783C282.379 34.7594 280.94 30.174 279.467 25.6221C278.061 21.0701 276.656 16.4178 275.25 11.665H285.492C286.027 13.8071 286.529 15.9827 286.998 18.1917C287.534 20.4007 288.036 22.5093 288.504 24.5175C288.973 26.4588 289.374 28.2327 289.709 29.8393C290.044 31.4459 290.345 32.7177 290.613 33.6549C290.613 33.6549 291.249 32.383 292.521 29.8393C293.324 28.2327 294.228 26.4588 295.232 24.5175C296.236 22.5093 297.307 20.4007 298.445 18.1917L301.658 11.665H312C309.256 16.4178 306.545 21.0701 303.867 25.6221C301.189 30.174 298.512 34.7594 295.834 39.3783L294.228 42.1897L292.119 57.2513Z" fill="black"/>
<path d="M248.039 57.2513L254.465 11.665H264.105L258.683 49.4193H272.238L270.531 57.2513H248.039Z" fill="black"/>
<path d="M214.137 57.2513L220.563 11.665H245.163L243.959 19.497H229.198L227.692 30.0401H238.938L237.934 37.3701H226.588L224.881 49.4193H239.842L238.838 57.2513H214.137Z" fill="black"/>
<path d="M204.814 39.3783H193.066L190.556 57.2513H180.816L187.243 11.665H211.04L209.935 19.497H195.878L194.071 31.9479H205.819L204.814 39.3783Z" fill="black"/>
<path d="M171.85 57.2513H162.211L168.637 11.665H178.277L171.85 57.2513Z" fill="black"/>
<path d="M135 57.2513L141.426 11.665H151.066L145.643 49.4193H159.199L157.492 57.2513H135Z" fill="black"/>
<path d="M38.4753 63.8405L41.6236 65.2397C50.1658 69.0362 60.2009 66.0951 65.3421 58.288L91.131 19.1272C93.1391 16.0778 92.0328 11.959 88.7671 10.3261L68.1155 0.000287826L38.4753 63.8405Z" fill="#753077"/>
<path d="M72.9571 54.7207C72.9571 48.7395 77.8059 43.8907 83.7871 43.8907C89.7684 43.8907 94.6172 48.7395 94.6172 54.7207C94.6172 60.702 89.7684 65.5508 83.7871 65.5508C77.8059 65.5508 72.9571 60.702 72.9571 54.7207Z" fill="#753077"/>
<path d="M56.1445 4.77109L52.9964 3.3719C44.4541 -0.424735 34.4191 2.51657 29.2778 10.3236L3.48896 49.4844C1.48082 52.5338 2.58713 56.6526 5.85286 58.2855L26.5045 68.6113L56.1445 4.77109Z" fill="#A90E98"/>
<path d="M7.67673e-05 13.8916C7.70288e-05 7.91037 4.84885 3.0616 10.8301 3.0616C16.8114 3.0616 21.6602 7.91037 21.6602 13.8916C21.6602 19.8729 16.8114 24.7217 10.8301 24.7217C4.84885 24.7217 7.65059e-05 19.8729 7.67673e-05 13.8916Z" fill="#A90E98"/>
</svg>
