<svg width="1744" height="333" viewBox="0 0 1744 333" fill="none" xmlns="http://www.w3.org/2000/svg">
<path d="M652 232.211C652 154.801 652 77.7831 652 0C662.941 6.90105 673.091 14.0535 683.409 20.9428C693.82 27.894 704.168 34.9389 714.55 41.9319C724.932 48.924 735.325 55.8976 745.707 62.8887C756.09 69.881 766.463 76.8887 776.846 83.8829C787.226 90.8755 797.613 97.8572 807.994 104.849C818.376 111.841 828.755 118.84 839.135 125.837C849.513 132.834 859.89 139.833 870.268 146.83C880.647 153.826 891.025 160.824 901.407 167.817C911.788 174.81 922.168 181.803 932.556 188.787C942.887 195.733 953.226 202.667 964.09 209.961C964.09 154.179 964.09 99.1528 964.09 43.9199C985.639 29.4059 1007.1 14.9508 1029 0.200533C1029 111.279 1029 221.762 1029 332.268C1028.93 332.3 1028.82 332.369 1028.69 332.406C1028.58 332.441 1028.43 332.491 1028.34 332.449C1027.98 332.295 1027.62 332.141 1027.3 331.926C924.222 262.535 821.15 193.139 718.075 123.747C717.973 123.679 717.831 123.672 717.483 123.57C716.664 124.812 717.06 126.257 717.06 127.581C717.034 179.146 717.038 230.711 717.038 282.276C717.038 283.582 716.921 284.9 717.063 286.19C717.304 288.392 716.426 289.689 714.561 290.934C695.587 303.604 676.686 316.384 657.764 329.132C656.07 330.273 654.372 331.409 652 333C652 299.02 652 265.811 652 232.211Z" fill="#032677"/>
<path d="M68.3154 140.243C136.223 140.252 203.766 140.252 271.559 140.252C271.559 157.681 271.559 174.807 271.559 192.354C203.286 192.354 135.138 192.354 66.7632 192.354C66.7632 207.187 66.7632 221.603 66.7632 236.056C66.8192 236.117 66.8985 236.224 66.9966 236.308C67.0899 236.388 67.1945 236.479 67.3085 236.507C67.5599 236.57 67.8191 236.617 68.0775 236.633C68.4676 236.657 68.8597 236.652 69.251 236.652C143.472 236.677 217.692 236.701 291.913 236.731C292.027 236.731 292.14 236.829 292.254 236.882C293.005 239.682 293.299 281.317 292.616 288.29C289.935 289.054 5.62379 289.306 0 288.519C0 207.098 0 125.647 0 44C97.5198 44 194.904 44 292.574 44C292.574 61.1403 292.574 78.2731 292.574 95.8104C217.388 95.8104 142.199 95.8104 66.7846 95.8104C66.6805 97.0628 66.5457 97.9357 66.5447 98.8087C66.5305 111.462 66.5101 124.115 66.572 136.768C66.578 137.998 65.6905 139.81 68.3154 140.243Z" fill="#032677"/>
<path d="M1559.94 44C1578.36 44.0936 1596.39 43.8198 1614.4 44.3733C1637.11 45.0714 1659.34 48.7319 1680.42 57.6856C1698.75 65.4682 1714.12 76.9722 1725.09 93.8091C1734.05 107.566 1739.31 122.719 1741.86 138.877C1744.47 155.34 1744.64 171.838 1742.66 188.358C1740.48 206.577 1735.16 223.754 1724.97 239.19C1712.8 257.609 1695.67 269.687 1675.25 277.415C1657.26 284.224 1638.5 287.307 1619.38 288.327C1610.77 288.786 1602.15 288.953 1593.53 288.964C1546.64 289.023 1499.75 288.992 1452.86 288.992C1451.32 288.992 1449.77 288.992 1448 288.992C1448 207.274 1448 125.882 1448 44C1485.22 44 1522.38 44 1559.94 44ZM1578.37 97.2996C1558.38 97.2996 1538.4 97.2963 1518.41 97.3058C1516.85 97.3066 1515.29 97.3933 1513.72 97.4521C1513.61 97.4563 1513.49 97.5442 1513.4 97.6217C1513.3 97.7039 1513.23 97.8203 1513.21 97.8494C1513.21 143.726 1513.21 189.53 1513.21 235.65C1514.89 235.65 1516.3 235.65 1517.72 235.65C1541.75 235.65 1565.79 235.686 1589.82 235.626C1596.61 235.609 1603.41 235.553 1610.18 235.088C1620.75 234.361 1631.18 232.66 1641.18 228.95C1657.17 223.017 1668.64 212.486 1673.76 195.992C1679.58 177.236 1679.57 158.252 1674.6 139.306C1670.26 122.753 1659.74 111.563 1644 105.089C1631.39 99.9016 1618.11 98.0213 1604.62 97.5197C1596.14 97.2046 1587.64 97.357 1578.37 97.2996Z" fill="#032677"/>
<path d="M519.626 206.077C509.759 201.773 499.677 199.217 489.496 196.999C470.171 192.788 450.782 188.853 431.541 184.289C413.647 180.045 396.232 174.226 379.989 165.349C371.22 160.557 363.398 154.519 357.012 146.722C346.773 134.221 343.855 119.712 345.378 103.966C347.487 82.1687 358.71 66.3924 377.158 55.4795C389.427 48.2218 402.882 44.2083 416.755 41.5385C439.395 37.1816 462.27 36.2993 485.226 37.4745C511.721 38.8309 537.696 43.5141 563.256 50.5805C568.762 52.1026 574.227 53.7726 579.832 55.4098C579.832 74.3723 579.832 93.0485 579.832 112.033C578.819 111.672 577.862 111.406 576.968 111C553.797 100.484 529.542 93.7989 504.435 90.0485C482.517 86.7743 460.562 86.8144 438.626 89.5145C432.864 90.2237 427.171 91.8877 421.601 93.6145C418.953 94.4353 416.435 96.1532 414.264 97.9584C410.139 101.388 409.53 106.976 412.639 111.364C413.747 112.927 415.241 114.298 416.787 115.446C421.882 119.232 427.7 121.63 433.767 123.155C450.045 127.248 466.364 131.187 482.719 134.959C499.716 138.879 516.771 142.564 533.285 148.303C547.099 153.104 560.506 158.809 572.547 167.319C580.847 173.185 587.909 180.246 593.002 189.171C597.159 196.456 599.502 204.254 599.876 212.666C600.352 223.364 599.568 233.877 595.555 243.932C589.416 259.314 578.6 270.433 564.289 278.266C553.219 284.324 541.271 287.954 529.023 290.625C513.826 293.939 498.406 295.082 482.887 295.672C461.228 296.497 439.656 295.828 418.183 292.938C395.031 289.822 372.393 284.446 350.369 276.554C349.159 276.12 347.977 275.608 346.676 275.09C346.676 255.734 346.676 236.503 346.676 216.971C347.457 217.204 348.185 217.29 348.781 217.618C366.609 227.426 385.6 234.116 405.338 238.682C434.399 245.405 463.829 246.823 493.471 244.184C501.91 243.432 510.278 241.923 518.176 238.722C521.752 237.272 525.341 235.434 528.333 233.029C536.212 226.697 535.933 217.062 527.898 211.048C525.411 209.187 522.568 207.809 519.626 206.077Z" fill="#032677"/>
<path d="M1391.99 289C1372.65 289 1353.7 289 1334.51 289C1333.82 287.721 1333.11 286.505 1332.49 285.246C1326.06 272.15 1319.59 259.073 1313.27 245.922C1312.11 243.506 1310.79 242.517 1307.96 242.524C1265.33 242.628 1222.7 242.622 1180.07 242.531C1177.43 242.525 1176.11 243.35 1175 245.68C1168.86 258.485 1162.57 271.215 1156.33 283.966C1155.53 285.598 1154.67 287.203 1153.82 288.868C1129.69 288.868 1105.67 288.868 1081 288.868C1123.3 207.101 1165.41 125.7 1207.64 44.0626C1208.99 44.0626 1210.27 44.0627 1211.56 44.0627C1233.27 44.0625 1254.98 44.1134 1276.69 44.0002C1279.52 43.9854 1281.03 44.7883 1282.37 47.404C1311.84 104.624 1341.41 161.79 1370.97 218.958C1382.64 241.524 1394.36 264.069 1406.04 286.628C1406.33 287.187 1406.52 287.798 1407 289C1401.88 289 1397.13 289 1391.99 289ZM1251.75 119.588C1249.43 114.846 1247.12 110.103 1244.44 104.625C1239.21 115.241 1234.34 125.116 1229.48 134.99C1224.58 144.916 1219.62 154.809 1214.81 164.777C1210.06 174.636 1204.91 184.317 1200.39 194.5C1229.9 194.5 1258.84 194.5 1288.34 194.5C1276.09 169.408 1264.07 144.755 1251.75 119.588Z" fill="#032677"/>
<path d="M812.146 214.821C814.767 216.572 817.149 218.171 820 220.083C793.377 237.876 767.152 255.401 740.818 273C739.929 269.76 739.67 172.748 740.518 167C764.513 182.901 788.194 198.808 812.146 214.821Z" fill="#00D488"/>
<path d="M869.151 117.862C866.784 116.264 864.651 114.821 862 113.028C888.438 95.2817 914.447 77.8237 941 60C941 95.6005 941 130.397 941 166C916.708 149.868 893.086 133.883 869.151 117.862Z" fill="#00D488"/>
</svg>
