<svg width="665" height="126" viewBox="0 0 665 126" fill="none" xmlns="http://www.w3.org/2000/svg">
<path d="M615.977 97.12V28.96H640.073C654.857 28.96 664.457 38.176 664.457 52.096C664.457 66.016 654.857 75.232 640.073 75.232H629.129V97.12H615.977ZM629.129 63.136H638.921C646.025 63.136 651.113 60.064 651.113 52.096C651.113 44.224 646.025 41.056 638.921 41.056H629.129V63.136Z" fill="black"/>
<path d="M585.38 98.08C571.076 98.08 559.652 88.864 559.652 71.776V28.96H572.804V71.776C572.804 82.432 579.332 85.696 585.38 85.696C591.332 85.696 597.956 82.432 597.956 71.776V28.96H611.108V71.776C611.108 88.864 599.684 98.08 585.38 98.08Z" fill="black"/>
<path d="M520.626 98.08C501.618 98.08 485.586 83.968 485.586 63.04C485.586 42.112 501.618 28 520.626 28C539.634 28 555.762 42.112 555.762 63.04C555.762 83.968 539.634 98.08 520.626 98.08ZM499.026 63.04C499.026 76.768 509.01 85.6 520.626 85.6C532.338 85.6 542.226 76.768 542.226 63.04C542.226 49.312 532.338 40.48 520.626 40.48C509.01 40.48 499.026 49.312 499.026 63.04Z" fill="black"/>
<path d="M473.846 97.12L459.83 74.56H449.654V97.12H436.502V28.96H460.406C474.902 28.96 484.502 38.176 484.502 52.096C484.502 61.888 479.798 68.992 471.926 72.352L487.862 97.12H473.846ZM449.654 63.136H459.062C466.262 63.136 471.158 60.064 471.158 52.096C471.158 44.224 466.262 41.056 459.062 41.056H449.654V63.136Z" fill="black"/>
<path d="M400.849 98.08C381.937 98.08 365.905 84.256 365.905 63.04C365.905 41.824 382.033 28 401.233 28C410.353 28 421.585 31.264 428.785 42.784L419.281 49.408C414.769 43.072 408.337 40.48 401.425 40.48C389.233 40.48 379.345 49.024 379.345 63.04C379.345 76.96 389.041 85.984 401.425 85.984C409.777 85.984 417.361 82.048 419.377 71.488H403.057V60.448H432.145C435.217 84.064 419.665 98.08 400.849 98.08Z" fill="black"/>
<path d="M356.329 98.08C352.297 98.08 348.937 95.104 348.937 90.688C348.937 86.272 352.297 83.296 356.329 83.296C360.265 83.296 363.721 86.272 363.721 90.688C363.721 95.104 360.265 98.08 356.329 98.08Z" fill="black"/>
<path d="M305.871 97.12V28.96H329.967C344.751 28.96 354.351 38.176 354.351 52.096C354.351 66.016 344.751 75.232 329.967 75.232H319.023V97.12H305.871ZM319.023 63.136H328.815C335.919 63.136 341.007 60.064 341.007 52.096C341.007 44.224 335.919 41.056 328.815 41.056H319.023V63.136Z" fill="black"/>
<path d="M263.14 97.12V28.96H276.292V85.024H302.884V97.12H263.14Z" fill="black"/>
<path d="M221.776 28.96H235.696L262 97.12H247.792L243.28 84.832H214.288L209.776 97.12H195.568L221.776 28.96ZM218.704 72.736H238.864L228.784 45.376L218.704 72.736Z" fill="black"/>
<path d="M177.912 97.12V41.056H161.496V28.96H207.48V41.056H191.064V97.12H177.912Z" fill="black"/>
<path d="M107.639 0H17.3611C7.77283 0 0 7.79121 0 17.4022V107.893C0 117.504 7.77283 125.296 17.3611 125.296H107.639C117.227 125.296 125 117.504 125 107.893V17.4022C125 7.79121 117.227 0 107.639 0Z" fill="#CC2944"/>
<path d="M23.8644 50.0229C27.9324 54.1005 36.1767 52.4477 42.2787 46.3314C48.3806 40.215 50.0295 31.9512 45.9615 27.8736C41.8936 23.796 33.6492 25.4488 27.5473 31.5651C21.4453 37.6815 19.7965 45.9453 23.8644 50.0229Z" fill="white"/>
<path d="M55.1135 44.4762C59.1814 48.5537 67.4258 46.901 73.5277 40.7846C79.6296 34.6682 81.2785 26.4044 77.2105 22.3268C73.1426 18.2493 64.8982 19.902 58.7963 26.0184C52.6944 32.1348 51.0455 40.3986 55.1135 44.4762Z" fill="white"/>
<path d="M86.3638 38.9294C90.4318 43.007 98.6761 41.3542 104.778 35.2379C110.88 29.1215 112.529 20.8577 108.461 16.7801C104.393 12.7025 96.1486 14.3553 90.0467 20.4716C83.9447 26.588 82.2959 34.8518 86.3638 38.9294Z" fill="white"/>
<path d="M20.2365 80.1508C24.3045 84.2284 32.5488 82.5757 38.6507 76.4593C44.7527 70.3429 46.4016 62.0791 42.3336 58.0015C38.2656 53.9239 30.0213 55.5767 23.9193 61.6931C17.8174 67.8094 16.1685 76.0733 20.2365 80.1508Z" fill="white"/>
<path d="M51.4855 74.6041C55.5535 78.6817 63.7978 77.0289 69.8998 70.9125C76.0017 64.7962 77.6506 56.5323 73.5826 52.4548C69.5147 48.3772 61.2703 50.03 55.1684 56.1463C49.0664 62.2627 47.4176 70.5265 51.4855 74.6041Z" fill="white"/>
<path d="M82.7344 69.0566C86.8024 73.1342 95.0467 71.4814 101.149 65.3651C107.251 59.2487 108.899 50.9849 104.832 46.9073C100.764 42.8297 92.5192 44.4825 86.4173 50.5988C80.3153 56.7152 78.6665 64.979 82.7344 69.0566Z" fill="white"/>
<path d="M16.7631 110.604C20.8311 114.682 29.0754 113.029 35.1774 106.913C41.2793 100.796 42.9282 92.5325 38.8602 88.4549C34.7922 84.3773 26.5479 86.0301 20.446 92.1464C14.344 98.2628 12.6952 106.527 16.7631 110.604Z" fill="white"/>
<path d="M48.0135 105.058C52.0814 109.135 60.3258 107.482 66.4277 101.366C72.5297 95.2497 74.1785 86.9858 70.1106 82.9083C66.0426 78.8307 57.7983 80.4834 51.6963 86.5998C45.5944 92.7162 43.9455 100.98 48.0135 105.058Z" fill="white"/>
<path d="M79.2625 99.5101C83.3305 103.588 91.5748 101.935 97.6767 95.8185C103.779 89.7022 105.428 81.4383 101.36 77.3608C97.2916 73.2832 89.0473 74.936 82.9454 81.0523C76.8434 87.1687 75.1945 95.4325 79.2625 99.5101Z" fill="white"/>
</svg>
